<svg width="24" height="24" viewBox="0 0 24 24" fill="none" xmlns="http://www.w3.org/2000/svg">
<path d="M15 8.25H15.75V7.5V5.25C15.75 3.1811 14.0689 1.5 12 1.5C9.9311 1.5 8.25 3.1811 8.25 5.25V7.5V8.25H9H15ZM6.75 8.25H7.5V7.5V5.25C7.5 2.76265 9.51265 0.75 12 0.75C14.4873 0.75 16.5 2.76265 16.5 5.25V7.5V8.25H17.25H20.25C21.078 8.25 21.75 8.92203 21.75 9.75V19.5C21.75 21.5702 20.0702 23.25 18 23.25H6C3.92984 23.25 2.25 21.5702 2.25 19.5V9.75C2.25 8.92203 2.92203 8.25 3.75 8.25H6.75ZM9.20083 9.54918C8.8492 9.19754 8.37228 9 7.875 9C7.37772 9 6.9008 9.19754 6.54917 9.54918C6.19754 9.90081 6 10.3777 6 10.875C6 11.3723 6.19754 11.8492 6.54917 12.2008C6.9008 12.5525 7.37772 12.75 7.875 12.75C8.37228 12.75 8.8492 12.5525 9.20083 12.2008C9.55246 11.8492 9.75 11.3723 9.75 10.875C9.75 10.3777 9.55246 9.90081 9.20083 9.54918ZM14.7992 9.54918C14.4475 9.9008 14.25 10.3777 14.25 10.875C14.25 11.3723 14.4475 11.8492 14.7992 12.2008C15.1508 12.5525 15.6277 12.75 16.125 12.75C16.6223 12.75 17.0992 12.5525 17.4508 12.2008C17.8025 11.8492 18 11.3723 18 10.875C18 10.3777 17.8025 9.9008 17.4508 9.54918C17.0992 9.19754 16.6223 9 16.125 9C15.6277 9 15.1508 9.19754 14.7992 9.54918Z" stroke="#8F95B2" stroke-width="1.5"/>
</svg>
