<svg width="24" height="24" viewBox="0 0 24 24" fill="none" xmlns="http://www.w3.org/2000/svg">
<path d="M3 2.5C3 1.67031 2.32969 1 1.5 1C0.670312 1 0 1.67031 0 2.5V18.25C0 20.3219 1.67812 22 3.75 22H22.5C23.3297 22 24 21.3297 24 20.5C24 19.6703 23.3297 19 22.5 19H3.75C3.3375 19 3 18.6625 3 18.25V2.5ZM22.0594 6.55938C22.6453 5.97344 22.6453 5.02188 22.0594 4.43594C21.4734 3.85 20.5219 3.85 19.9359 4.43594L15 9.37656L12.3094 6.68594C11.7234 6.1 10.7719 6.1 10.1859 6.68594L4.93594 11.9359C4.35 12.5219 4.35 13.4734 4.93594 14.0594C5.52188 14.6453 6.47344 14.6453 7.05938 14.0594L11.25 9.87344L13.9406 12.5641C14.5266 13.15 15.4781 13.15 16.0641 12.5641L22.0641 6.56406L22.0594 6.55938Z" fill="#8F95B2"/>
</svg>
