<svg width="32" height="32" viewBox="0 0 32 32" fill="none" xmlns="http://www.w3.org/2000/svg">
<path d="M4.35 10.8C4.35 9.72587 4.7767 8.69574 5.53622 7.93622C6.29574 7.1767 7.32587 6.75 8.4 6.75C9.47413 6.75 10.5043 7.1767 11.2638 7.93622C12.0233 8.69574 12.45 9.72587 12.45 10.8C12.45 11.8741 12.0233 12.9043 11.2638 13.6638C10.5043 14.4233 9.47413 14.85 8.4 14.85C7.32587 14.85 6.29574 14.4233 5.53622 13.6638C4.7767 12.9043 4.35 11.8741 4.35 10.8ZM0.75 24.0863C0.75 20.8067 3.40671 18.15 6.68625 18.15H10.1138C13.3933 18.15 16.05 20.8067 16.05 24.0863C16.05 24.287 15.887 24.45 15.6862 24.45H1.11375C0.912964 24.45 0.75 24.287 0.75 24.0863ZM22.8488 24.45H18.7176C18.7389 24.3033 18.75 24.1531 18.75 24V23.7C18.75 21.8441 18.1354 20.1283 17.1003 18.75H17.9513C20.8783 18.75 23.25 21.1217 23.25 24.0487C23.25 24.2704 23.0699 24.45 22.8488 24.45ZM16.2 14.85C15.4623 14.85 14.78 14.6189 14.2187 14.2244C14.8112 13.2196 15.15 12.0483 15.15 10.8C15.15 9.92073 14.9813 9.07835 14.6732 8.30571C15.1343 8.07811 15.652 7.95 16.2 7.95C18.107 7.95 19.65 9.49296 19.65 11.4C19.65 13.307 18.107 14.85 16.2 14.85Z" stroke="#8F95B2" stroke-width="1.5"/>
</svg>
