<svg width="18" height="24" viewBox="0 0 18 24" fill="none" xmlns="http://www.w3.org/2000/svg">
<path d="M0.75 3C0.75 1.75953 1.75953 0.75 3 0.75H9.75V6C9.75 7.2439 10.7561 8.25 12 8.25H17.25V21C17.25 22.2405 16.2405 23.25 15 23.25H3C1.75953 23.25 0.75 22.2405 0.75 21V3ZM16.1893 5.25H12.75V1.81066L16.1893 5.25ZM12.75 11.25H5.25C4.42329 11.25 3.75 11.9233 3.75 12.75C3.75 13.5767 4.42329 14.25 5.25 14.25C4.42329 14.25 3.75 14.9233 3.75 15.75C3.75 16.5767 4.42329 17.25 5.25 17.25C4.42329 17.25 3.75 17.9233 3.75 18.75C3.75 19.5767 4.42329 20.25 5.25 20.25H12.75C13.5767 20.25 14.25 19.5767 14.25 18.75C14.25 17.9233 13.5767 17.25 12.75 17.25C13.5767 17.25 14.25 16.5767 14.25 15.75C14.25 14.9233 13.5767 14.25 12.75 14.25C13.5767 14.25 14.25 13.5767 14.25 12.75C14.25 11.9233 13.5767 11.25 12.75 11.25Z" stroke="#8F95B2" stroke-width="1.5"/>
</svg>
