<svg width="24" height="24" viewBox="0 0 24 24" fill="none" xmlns="http://www.w3.org/2000/svg">
<path d="M23.2463 11.563L23.2417 11.6043V11.6458C23.2417 11.9482 23.0053 12.1945 22.7257 12.2292H22.6583H21.325H20.5717L20.575 12.9824L20.6042 19.6574L20.6042 19.6584C20.6102 20.7208 19.7517 21.5833 18.6875 21.5833H5.33333C4.27671 21.5833 3.41667 20.7233 3.41667 19.6667V12.9833V12.2333H2.66667H1.33333C1.00061 12.2333 0.75 11.9847 0.75 11.6458C0.75 11.469 0.797518 11.3322 0.931518 11.192L11.5969 1.89879L11.6163 1.88187L11.6345 1.86366C11.6859 1.81225 11.7313 1.78968 11.778 1.77566C11.8338 1.75893 11.9072 1.75 12.0208 1.75C12.1859 1.75 12.3295 1.79916 12.4103 1.86345L23.0381 11.2091L23.0395 11.2103C23.2492 11.3938 23.2529 11.5028 23.2463 11.563ZM11.3333 8.25C10.5525 8.25 9.91667 8.88579 9.91667 9.66667V10.9167H8.66667C7.88579 10.9167 7.25 11.5525 7.25 12.3333V13.6667C7.25 14.4475 7.88579 15.0833 8.66667 15.0833H9.91667V16.3333C9.91667 17.1142 10.5525 17.75 11.3333 17.75H12.6667C13.4475 17.75 14.0833 17.1142 14.0833 16.3333V15.0833H15.3333C16.1142 15.0833 16.75 14.4475 16.75 13.6667V12.3333C16.75 11.5525 16.1142 10.9167 15.3333 10.9167H14.0833V9.66667C14.0833 8.88579 13.4475 8.25 12.6667 8.25H11.3333Z" stroke="#8F95B2" stroke-width="1.5"/>
</svg>
