<svg width="27" height="27" viewBox="0 0 27 27" fill="none" xmlns="http://www.w3.org/2000/svg">
<path d="M6.8 18V5.2C6.8 3.435 8.235 2 10 2H22.8C24.565 2 26 3.435 26 5.2V15.075C26 15.925 25.665 16.74 25.065 17.34L22.14 20.265C21.54 20.865 20.725 21.2 19.875 21.2H10C8.235 21.2 6.8 19.765 6.8 18ZM15.6 6.8C15.16 6.8 14.8 7.16 14.8 7.6V10H12.4C11.96 10 11.6 10.36 11.6 10.8V12.4C11.6 12.84 11.96 13.2 12.4 13.2H14.8V15.6C14.8 16.04 15.16 16.4 15.6 16.4H17.2C17.64 16.4 18 16.04 18 15.6V13.2H20.4C20.84 13.2 21.2 12.84 21.2 12.4V10.8C21.2 10.36 20.84 10 20.4 10H18V7.6C18 7.16 17.64 6.8 17.2 6.8H15.6ZM16.8 23.6C17.465 23.6 18 24.135 18 24.8C18 25.465 17.465 26 16.8 26H8.8C5.045 26 2 22.955 2 19.2V8C2 7.335 2.535 6.8 3.2 6.8C3.865 6.8 4.4 7.335 4.4 8V19.2C4.4 21.63 6.37 23.6 8.8 23.6H16.8Z" stroke="#8F95B2" stroke-width="1.5"/>
</svg>
