<svg width="24" height="24" viewBox="0 0 24 24" fill="none" xmlns="http://www.w3.org/2000/svg">
<path d="M5.1 6C5.1 4.67668 6.17668 3.6 7.5 3.6H21C22.3233 3.6 23.4 4.67668 23.4 6V21C23.4 22.3233 22.3233 23.4 21 23.4H3.75C2.0095 23.4 0.6 21.9905 0.6 20.25V7.5C0.6 7.00168 1.00168 6.6 1.5 6.6C1.99832 6.6 2.4 7.00168 2.4 7.5V20.25C2.4 20.9939 3.00613 21.6 3.75 21.6C4.49387 21.6 5.1 20.9939 5.1 20.25V6ZM6.9 7.125V10.875C6.9 11.8298 7.67019 12.6 8.625 12.6H13.875C14.8298 12.6 15.6 11.8298 15.6 10.875V7.125C15.6 6.17019 14.8298 5.4 13.875 5.4H8.625C7.67019 5.4 6.9 6.17019 6.9 7.125ZM16.65 6.75C16.65 7.49387 17.2561 8.1 18 8.1H20.25C20.9939 8.1 21.6 7.49387 21.6 6.75C21.6 6.00613 20.9939 5.4 20.25 5.4H18C17.2561 5.4 16.65 6.00613 16.65 6.75ZM16.65 11.25C16.65 11.9939 17.2561 12.6 18 12.6H20.25C20.9939 12.6 21.6 11.9939 21.6 11.25C21.6 10.5061 20.9939 9.9 20.25 9.9H18C17.2561 9.9 16.65 10.5061 16.65 11.25ZM6.9 15.75C6.9 16.4939 7.50613 17.1 8.25 17.1H20.25C20.9939 17.1 21.6 16.4939 21.6 15.75C21.6 15.0061 20.9939 14.4 20.25 14.4H8.25C7.50613 14.4 6.9 15.0061 6.9 15.75ZM6.9 20.25C6.9 20.9939 7.50613 21.6 8.25 21.6H20.25C20.9939 21.6 21.6 20.9939 21.6 20.25C21.6 19.5061 20.9939 18.9 20.25 18.9H8.25C7.50613 18.9 6.9 19.5061 6.9 20.25Z" stroke="#8F95B2" stroke-width="1.2"/>
</svg>
