<svg width="21" height="20" viewBox="0 0 21 20" fill="none" xmlns="http://www.w3.org/2000/svg">
<path fill-rule="evenodd" clip-rule="evenodd" d="M9.31924 20.0001H4.43324C1.98924 20.0001 0.000244141 18.0111 0.000244141 15.5651V4.43612C0.000244141 1.99012 1.98924 0.00012207 4.43324 0.00012207H9.30824C11.7542 0.00012207 13.7442 1.99012 13.7442 4.43612V5.36812C13.7442 5.78212 13.4082 6.11812 12.9942 6.11812C12.5802 6.11812 12.2442 5.78212 12.2442 5.36812V4.43612C12.2442 2.81612 10.9272 1.50012 9.30824 1.50012H4.43324C2.81624 1.50012 1.50024 2.81612 1.50024 4.43612V15.5651C1.50024 17.1841 2.81624 18.5001 4.43324 18.5001H9.31924C10.9312 18.5001 12.2442 17.1881 12.2442 15.5761V14.6331C12.2442 14.2191 12.5802 13.8831 12.9942 13.8831C13.4082 13.8831 13.7442 14.2191 13.7442 14.6331V15.5761C13.7442 18.0161 11.7582 20.0001 9.31924 20.0001Z" fill="black"/>
<mask id="mask0_33437_4792" style="mask-type:luminance" maskUnits="userSpaceOnUse" x="6" y="9" width="15" height="2">
<path fill-rule="evenodd" clip-rule="evenodd" d="M6.99609 9.25012H20.537V10.7501H6.99609V9.25012Z" fill="white"/>
</mask>
<g mask="url(#mask0_33437_4792)">
<path fill-rule="evenodd" clip-rule="evenodd" d="M19.7871 10.7501H7.74609C7.33209 10.7501 6.99609 10.4141 6.99609 10.0001C6.99609 9.58612 7.33209 9.25012 7.74609 9.25012H19.7871C20.2011 9.25012 20.5371 9.58612 20.5371 10.0001C20.5371 10.4141 20.2011 10.7501 19.7871 10.7501Z" fill="black"/>
</g>
<mask id="mask1_33437_4792" style="mask-type:luminance" maskUnits="userSpaceOnUse" x="16" y="6" width="5" height="8">
<path fill-rule="evenodd" clip-rule="evenodd" d="M16.1096 6.33533H20.537V13.6661H16.1096V6.33533Z" fill="white"/>
</mask>
<g mask="url(#mask1_33437_4792)">
<path fill-rule="evenodd" clip-rule="evenodd" d="M16.8594 13.6661C16.6674 13.6661 16.4744 13.5931 16.3284 13.4451C16.0364 13.1511 16.0374 12.6771 16.3304 12.3851L18.7244 10.0001L16.3304 7.61608C16.0374 7.32408 16.0354 6.85008 16.3284 6.55608C16.6204 6.26208 17.0944 6.26208 17.3884 6.55408L20.3164 9.46908C20.4584 9.60908 20.5374 9.80108 20.5374 10.0001C20.5374 10.1991 20.4584 10.3911 20.3164 10.5311L17.3884 13.4471C17.2424 13.5931 17.0504 13.6661 16.8594 13.6661Z" fill="black"/>
</g>
</svg>
