<svg width="48" height="48" viewBox="0 0 48 48" fill="none" xmlns="http://www.w3.org/2000/svg">
<rect width="48" height="48" rx="17" fill="#FDCE81"/>
<path d="M18 12C16.3453 12 15 13.3453 15 15V33C15 34.6547 16.3453 36 18 36H30C31.6547 36 33 34.6547 33 33V19.5H27C26.1703 19.5 25.5 18.8297 25.5 18V12H18ZM27 12V18H33L27 12ZM20.25 24H27.75C28.1625 24 28.5 24.3375 28.5 24.75C28.5 25.1625 28.1625 25.5 27.75 25.5H20.25C19.8375 25.5 19.5 25.1625 19.5 24.75C19.5 24.3375 19.8375 24 20.25 24ZM20.25 27H27.75C28.1625 27 28.5 27.3375 28.5 27.75C28.5 28.1625 28.1625 28.5 27.75 28.5H20.25C19.8375 28.5 19.5 28.1625 19.5 27.75C19.5 27.3375 19.8375 27 20.25 27ZM20.25 30H27.75C28.1625 30 28.5 30.3375 28.5 30.75C28.5 31.1625 28.1625 31.5 27.75 31.5H20.25C19.8375 31.5 19.5 31.1625 19.5 30.75C19.5 30.3375 19.8375 30 20.25 30Z" fill="black"/>
</svg>
