<svg width="48" height="48" viewBox="0 0 48 48" fill="none" xmlns="http://www.w3.org/2000/svg">
<rect width="48" height="48" rx="17" fill="white"/>
<path d="M24 24C25.5913 24 27.1174 23.3679 28.2426 22.2426C29.3679 21.1174 30 19.5913 30 18C30 16.4087 29.3679 14.8826 28.2426 13.7574C27.1174 12.6321 25.5913 12 24 12C22.4087 12 20.8826 12.6321 19.7574 13.7574C18.6321 14.8826 18 16.4087 18 18C18 19.5913 18.6321 21.1174 19.7574 22.2426C20.8826 23.3679 22.4087 24 24 24ZM19.5 26.5875C16.0312 27.6047 13.5 30.8109 13.5 34.6078C13.5 35.3766 14.1234 36 14.8922 36H33.1078C33.8766 36 34.5 35.3766 34.5 34.6078C34.5 30.8109 31.9688 27.6047 28.5 26.5875V28.9688C29.7938 29.3016 30.75 30.4781 30.75 31.875V33.75C30.75 34.1625 30.4125 34.5 30 34.5H29.25C28.8375 34.5 28.5 34.1625 28.5 33.75C28.5 33.3375 28.8375 33 29.25 33V31.875C29.25 31.0453 28.5797 30.375 27.75 30.375C26.9203 30.375 26.25 31.0453 26.25 31.875V33C26.6625 33 27 33.3375 27 33.75C27 34.1625 26.6625 34.5 26.25 34.5H25.5C25.0875 34.5 24.75 34.1625 24.75 33.75V31.875C24.75 30.4781 25.7063 29.3016 27 28.9688V26.2922C26.7188 26.2641 26.4328 26.25 26.1422 26.25H21.8578C21.5672 26.25 21.2812 26.2641 21 26.2922V29.3578C22.0828 29.6812 22.875 30.6844 22.875 31.875C22.875 33.3234 21.6984 34.5 20.25 34.5C18.8016 34.5 17.625 33.3234 17.625 31.875C17.625 30.6844 18.4172 29.6812 19.5 29.3578V26.5875ZM20.25 33C20.5484 33 20.8345 32.8815 21.0455 32.6705C21.2565 32.4595 21.375 32.1734 21.375 31.875C21.375 31.5766 21.2565 31.2905 21.0455 31.0795C20.8345 30.8685 20.5484 30.75 20.25 30.75C19.9516 30.75 19.6655 30.8685 19.4545 31.0795C19.2435 31.2905 19.125 31.5766 19.125 31.875C19.125 32.1734 19.2435 32.4595 19.4545 32.6705C19.6655 32.8815 19.9516 33 20.25 33Z" fill="black"/>
</svg>
