<svg width="48" height="48" viewBox="0 0 48 48" fill="none" xmlns="http://www.w3.org/2000/svg">
<rect width="48" height="48" rx="17" fill="#FDCE81"/>
<path d="M16.5 17C16.5 15.3453 17.8453 14 19.5 14H33C34.6547 14 36 15.3453 36 17V32C36 33.6547 34.6547 35 33 35H15.75C13.6781 35 12 33.3219 12 31.25V18.5C12 17.6703 12.6703 17 13.5 17C14.3297 17 15 17.6703 15 18.5V31.25C15 31.6625 15.3375 32 15.75 32C16.1625 32 16.5 31.6625 16.5 31.25V17ZM19.5 18.125V21.875C19.5 22.4984 20.0016 23 20.625 23H25.875C26.4984 23 27 22.4984 27 21.875V18.125C27 17.5016 26.4984 17 25.875 17H20.625C20.0016 17 19.5 17.5016 19.5 18.125ZM29.25 17.75C29.25 18.1625 29.5875 18.5 30 18.5H32.25C32.6625 18.5 33 18.1625 33 17.75C33 17.3375 32.6625 17 32.25 17H30C29.5875 17 29.25 17.3375 29.25 17.75ZM29.25 22.25C29.25 22.6625 29.5875 23 30 23H32.25C32.6625 23 33 22.6625 33 22.25C33 21.8375 32.6625 21.5 32.25 21.5H30C29.5875 21.5 29.25 21.8375 29.25 22.25ZM19.5 26.75C19.5 27.1625 19.8375 27.5 20.25 27.5H32.25C32.6625 27.5 33 27.1625 33 26.75C33 26.3375 32.6625 26 32.25 26H20.25C19.8375 26 19.5 26.3375 19.5 26.75ZM19.5 31.25C19.5 31.6625 19.8375 32 20.25 32H32.25C32.6625 32 33 31.6625 33 31.25C33 30.8375 32.6625 30.5 32.25 30.5H20.25C19.8375 30.5 19.5 30.8375 19.5 31.25Z" fill="black"/>
</svg>
