<svg width="48" height="48" viewBox="0 0 48 48" fill="none" xmlns="http://www.w3.org/2000/svg">
<rect width="48" height="48" rx="17" fill="#FDCE81"/>
<path d="M34.6583 24.9833C35.3667 24.9833 35.9917 24.4 35.9917 23.6458C36.0333 23.2708 35.8667 22.9375 35.5333 22.6458L24.8958 13.2917C24.6458 13.0833 24.3125 13 24.0208 13C23.7292 13 23.3958 13.0417 23.1042 13.3333L12.4167 22.6458C12.125 22.9375 12 23.2708 12 23.6458C12 24.3958 12.5833 24.9833 13.3333 24.9833H14.6667V31.6667C14.6667 33.1375 15.8625 34.3333 17.3333 34.3333H30.6875C32.1667 34.3333 33.3625 33.1333 33.3542 31.6542L33.325 24.9792H34.6583V24.9833ZM22.6667 21.6667C22.6667 21.3 22.9667 21 23.3333 21H24.6667C25.0333 21 25.3333 21.3 25.3333 21.6667V23.6667H27.3333C27.7 23.6667 28 23.9667 28 24.3333V25.6667C28 26.0333 27.7 26.3333 27.3333 26.3333H25.3333V28.3333C25.3333 28.7 25.0333 29 24.6667 29H23.3333C22.9667 29 22.6667 28.7 22.6667 28.3333V26.3333H20.6667C20.3 26.3333 20 26.0333 20 25.6667V24.3333C20 23.9667 20.3 23.6667 20.6667 23.6667H22.6667V21.6667Z" fill="black"/>
</svg>
