<svg width="48" height="48" viewBox="0 0 48 48" fill="none" xmlns="http://www.w3.org/2000/svg">
<rect width="48" height="48" rx="17" fill="white"/>
<path d="M16.8 28V15.2C16.8 13.435 18.235 12 20 12H32.8C34.565 12 36 13.435 36 15.2V25.075C36 25.925 35.665 26.74 35.065 27.34L32.14 30.265C31.54 30.865 30.725 31.2 29.875 31.2H20C18.235 31.2 16.8 29.765 16.8 28ZM25.6 16.8C25.16 16.8 24.8 17.16 24.8 17.6V20H22.4C21.96 20 21.6 20.36 21.6 20.8V22.4C21.6 22.84 21.96 23.2 22.4 23.2H24.8V25.6C24.8 26.04 25.16 26.4 25.6 26.4H27.2C27.64 26.4 28 26.04 28 25.6V23.2H30.4C30.84 23.2 31.2 22.84 31.2 22.4V20.8C31.2 20.36 30.84 20 30.4 20H28V17.6C28 17.16 27.64 16.8 27.2 16.8H25.6ZM26.8 33.6C27.465 33.6 28 34.135 28 34.8C28 35.465 27.465 36 26.8 36H18.8C15.045 36 12 32.955 12 29.2V18C12 17.335 12.535 16.8 13.2 16.8C13.865 16.8 14.4 17.335 14.4 18V29.2C14.4 31.63 16.37 33.6 18.8 33.6H26.8Z" fill="black"/>
</svg>
