<svg width="48" height="48" viewBox="0 0 48 48" fill="none" xmlns="http://www.w3.org/2000/svg">
<rect width="48" height="48" rx="17" fill="white"/>
<path d="M34.0641 12.4406C34.2047 12.5859 34.3125 12.75 34.3875 12.9234C34.4625 13.0969 34.5 13.2891 34.5 13.4953V13.5V18C34.5 18.8297 33.8297 19.5 33 19.5C32.1703 19.5 31.5 18.8297 31.5 18V17.1234L26.5594 22.0594C26.0063 22.6125 25.1156 22.65 24.5203 22.1391L20.25 18.4734L15.975 22.1391C15.3469 22.6781 14.4 22.6031 13.8609 21.975C13.3219 21.3469 13.3969 20.4 14.025 19.8609L19.275 15.3609C19.8375 14.8781 20.6672 14.8781 21.2297 15.3609L25.425 18.9562L29.3766 15H28.5C27.6703 15 27 14.3297 27 13.5C27 12.6703 27.6703 12 28.5 12H33C33.4125 12 33.7875 12.1688 34.0594 12.4359L34.0641 12.4406ZM12 26.25C12 25.0078 13.0078 24 14.25 24H33.75C34.9922 24 36 25.0078 36 26.25V33.75C36 34.9922 34.9922 36 33.75 36H14.25C13.0078 36 12 34.9922 12 33.75V26.25ZM14.25 31.5V33.75H16.5C16.5 32.5078 15.4922 31.5 14.25 31.5ZM16.5 26.25H14.25V28.5C15.4922 28.5 16.5 27.4922 16.5 26.25ZM33.75 31.5C32.5078 31.5 31.5 32.5078 31.5 33.75H33.75V31.5ZM31.5 26.25C31.5 27.4922 32.5078 28.5 33.75 28.5V26.25H31.5ZM27 30C27 29.2044 26.6839 28.4413 26.1213 27.8787C25.5587 27.3161 24.7956 27 24 27C23.2044 27 22.4413 27.3161 21.8787 27.8787C21.3161 28.4413 21 29.2044 21 30C21 30.7956 21.3161 31.5587 21.8787 32.1213C22.4413 32.6839 23.2044 33 24 33C24.7956 33 25.5587 32.6839 26.1213 32.1213C26.6839 31.5587 27 30.7956 27 30Z" fill="black"/>
</svg>
