<svg width="48" height="48" viewBox="0 0 48 48" fill="none" xmlns="http://www.w3.org/2000/svg">
<rect width="48" height="48" rx="17" fill="#FDCE81"/>
<path d="M21 17.25C21 15.5953 22.3453 14.25 24 14.25C25.6547 14.25 27 15.5953 27 17.25V19.5H21V17.25ZM18.75 19.5H15.75C14.5078 19.5 13.5 20.5078 13.5 21.75V31.5C13.5 33.9844 15.5156 36 18 36H30C32.4844 36 34.5 33.9844 34.5 31.5V21.75C34.5 20.5078 33.4922 19.5 32.25 19.5H29.25V17.25C29.25 14.3484 26.9016 12 24 12C21.0984 12 18.75 14.3484 18.75 17.25V19.5ZM19.875 21.75C20.1734 21.75 20.4595 21.8685 20.6705 22.0795C20.8815 22.2905 21 22.5766 21 22.875C21 23.1734 20.8815 23.4595 20.6705 23.6705C20.4595 23.8815 20.1734 24 19.875 24C19.5766 24 19.2905 23.8815 19.0795 23.6705C18.8685 23.4595 18.75 23.1734 18.75 22.875C18.75 22.5766 18.8685 22.2905 19.0795 22.0795C19.2905 21.8685 19.5766 21.75 19.875 21.75ZM27 22.875C27 22.5766 27.1185 22.2905 27.3295 22.0795C27.5405 21.8685 27.8266 21.75 28.125 21.75C28.4234 21.75 28.7095 21.8685 28.9205 22.0795C29.1315 22.2905 29.25 22.5766 29.25 22.875C29.25 23.1734 29.1315 23.4595 28.9205 23.6705C28.7095 23.8815 28.4234 24 28.125 24C27.8266 24 27.5405 23.8815 27.3295 23.6705C27.1185 23.4595 27 23.1734 27 22.875Z" fill="black"/>
</svg>
