<svg width="48" height="48" viewBox="0 0 48 48" fill="none" xmlns="http://www.w3.org/2000/svg">
<rect width="48" height="48" rx="17" fill="white"/>
<g clip-path="url(#clip0_832_15844)">
<path d="M24 25.5C25.7902 25.5 27.5071 24.7888 28.773 23.523C30.0388 22.2571 30.75 20.5402 30.75 18.75C30.75 16.9598 30.0388 15.2429 28.773 13.977C27.5071 12.7112 25.7902 12 24 12C22.2098 12 20.4929 12.7112 19.227 13.977C17.9612 15.2429 17.25 16.9598 17.25 18.75C17.25 20.5402 17.9612 22.2571 19.227 23.523C20.4929 24.7888 22.2098 25.5 24 25.5ZM19.5609 27C15.3844 27 12 30.3844 12 34.5609C12 35.3578 12.6469 36 13.4391 36H34.5609C35.3578 36 36 35.3531 36 34.5609C36 30.3844 32.6156 27 28.4391 27H19.5609Z" fill="black"/>
</g>
<defs>
<clipPath id="clip0_832_15844">
<rect width="24" height="24" fill="white" transform="translate(12 12)"/>
</clipPath>
</defs>
</svg>
